<svg xmlns="http://www.w3.org/2000/svg" viewBox="0 0 318.17 310.4"><defs><style>.cls-1{fill:#f4f4f9;}.cls-2{fill:#deddf2;}.cls-3{fill:#ceceea;}.cls-4{fill:#1a171e;}.cls-5{fill:#0021ce;}.cls-6{fill:#0023b7;}.cls-7{fill:#fff;}.cls-8{fill:#a8a6e2;}.cls-9{fill:#c2bcf7;}.cls-10{fill:#e6d5b9;}.cls-11{fill:#6f11e1;}.cls-12{fill:#5b0bce;}.cls-13{fill:#ddcaaf;}.cls-14{fill:#fe5b3a;}.cls-15{fill:#f74528;}.cls-16{fill:#dfe5e4;}.cls-17{fill:#c7d8d5;}.cls-18{fill:#1e1c23;}.cls-19{fill:#ddcbb1;}.cls-20{fill:#151319;}.cls-21{fill:#131016;}</style></defs><g id="Layer_2" data-name="Layer 2"><g id="obj"><path class="cls-1" d="M286.89,235c-1.31-3.24-2.7-6.46-4.14-9.65q-2.36-5.06-4.48-10.17a195.9,195.9,0,0,1-8.85-27.21q-1.17-4.62-2.2-9.28-.89-5.55-1.69-11.43a100.76,100.76,0,0,0,.57-13A97.87,97.87,0,0,0,265,141.5a82.34,82.34,0,0,0-.81-8.5c.48-14.64-.12-31.46-6-44.7a44.29,44.29,0,0,0-4.2-7.47c-9-11.25-23-19.25-37-15.25-18.38,4.37-35.22,14.1-54.09,16.77a69.38,69.38,0,0,1-8.23.67c-3.68-.44-6.68.56-10.68-.44a101.92,101.92,0,0,1-18.42-3.68C122.39,78,119.14,77,115.86,76,98,70.58,81,63.58,62,65.58c-21,3-33,24-34.79,42.61-.61,3.34-1.15,6.69-1.64,10.06-2.93,20.22-4,40.89-8.37,60.59-.71,3.29-1.53,6.57-2.43,9.83s-1.58,6.32-2.24,9.61c-6,29.54-4.26,64.63,26.37,78.82a79.56,79.56,0,0,0,10.76,4.66,83.09,83.09,0,0,0,34.21,4.52,21.64,21.64,0,0,1,7.95,2c2.75,1.14,5.55,2.59,8.24,3.84q4.44,1.71,9,3.17c21.08,6.81,43.4,9.48,65.58,10.45a164.07,164.07,0,0,0,26.7-.55c3-.35,5.89-.84,8.82-1.48,9.21-3.45,19.35-4.72,29.08-6.69,3.25-.66,6.45-1.39,9.55-2.31,19.37-5.63,32.45-22,37.13-40.59a66.12,66.12,0,0,0,1.81-11.38A55.61,55.61,0,0,0,286.89,235Z"/><path class="cls-2" d="M276.34,246.07c7-8.46,11.89-18.31,9.05-29.57-1.17-4.64-2.3-8.5.59-12.76,1.37-2,3.07-3.83,4-6.07,2.78-6.5,0-13-3-18.84-2.25-4.29-4.65-8.63-5.72-13.41-1.13-5-.07-10.19-.67-15.29-.59-4.93-3.46-10.26-8.37-11.09-3.25-.56-6.54,1.07-8.94,3.34a17.86,17.86,0,0,0-5.25,9.86c-.86,5.11.51,10.62-1.53,15.39-1.8,4.2-5.89,6.92-8.54,10.65A18,18,0,0,0,245,192.14c.8,4,2.94,7.58,3.57,11.58,1.43,9-4.9,17.8-3.69,26.82a19.65,19.65,0,0,0,8.29,13c4.88,3.49,11.92,5.95,17.94,4.81a12,12,0,0,0,7.95-5.24"/><path class="cls-2" d="M266.09,242.25a11.68,11.68,0,0,0,0-5.75c-1.69-5.26-6.73-8.82-10.3-12.74-4.25-4.67-7.35-10.67-7.4-17,0-5.13-1.16-9.44-4.73-13.33s-7.95-6.65-11.64-10.28a80,80,0,0,1-10.44-12.42c-2.59-3.81-7.43-9.52-11.16-3.19a11.76,11.76,0,0,0-1.34,8.43c1.65,7.47,8.5,12.35,11.41,19.25,1.47,3.48,1.65,7.2,2,10.92.34,3.33,1,7.06,3.36,9.59,1.39,1.47,3.16,2.57,4.41,4.16,1.75,2.21,2.26,5,2.86,7.72a41.64,41.64,0,0,0,3,8.15c3.08,6.71,7.62,14.51,14.67,17.54a10.26,10.26,0,0,0,6.55.79C262.15,252.83,265.14,246.77,266.09,242.25Z"/><path class="cls-3" d="M255.33,185.11a.67.67,0,0,1,.93.18l10.53,15.58,2.34-40.55a.69.69,0,0,1,.7-.62.66.66,0,0,1,.63.7L268.75,190l13-7.14a.68.68,0,0,1,.91.26.67.67,0,0,1-.27.91l-13.58,7.47-.13,0-1.58,27.33,10.47-5.29a.67.67,0,0,1,.6,1.19L267,220.42l-1.28,22.15a.66.66,0,0,1-.63.62H265a.66.66,0,0,1-.62-.7l2.28-39.42-11.51-17A.68.68,0,0,1,255.33,185.11Z"/><path class="cls-3" d="M293.89,195.49c2.15-5.73,3.43-9.93,4.07-12.2-1-4.95-2.56-17.88,7-19.8,5.16,2.72,6.74,12.43-4.41,20.33-.7,2.52-2.21,7.48-4.85,14.33,7.94-11.8,18.22-10.51,21.35-5.17-1.82,11.62-19.17,8.85-22.55,8.2-1.49,3.71-3.28,7.88-5.42,12.43,8.35-8.51,17.22-6.32,19.71-1.15-2.57,10.67-17.63,7.75-22.31,6.56-2.06,4.16-4.39,8.59-7,13.24,10.82-10.16,21.53-6.8,24.08-.35-4,12.62-22.17,7.43-27.18,5.73a319.62,319.62,0,0,1-30.74,43.28l-2-1.68a318,318,0,0,0,30.73-43.31c-5.72-3.38-18.91-12.65-12.81-23.23,6.45-2.45,16.06,3.11,16,17.73q3.48-6.21,6.27-11.85c-4.43-2.61-14.92-9.9-10.11-18.24,5-1.89,12.33,2.3,12.5,13.34,2.47-5.21,4.5-9.92,6.14-14-3.81-2.12-16-9.82-10.88-18.69C286.54,179,294.25,183.56,293.89,195.49Z"/><path class="cls-3" d="M229.16,213.11a.67.67,0,0,1,.92-.24l11.91,7-11.26-24.46a.67.67,0,0,1,1.21-.56l8.24,17.89.87-15.14a.67.67,0,1,1,1.33.08l-1,17.19a.67.67,0,0,1-.1.29L252,238.47l2.25-9.09a.67.67,0,1,1,1.29.33l-2.52,10.16a.62.62,0,0,1-.22.35l2,4.44a.67.67,0,0,1-.33.88.53.53,0,0,1-.24.06.65.65,0,0,1-.64-.39l-10.79-23.42a.63.63,0,0,1-.35-.09L229.4,214A.67.67,0,0,1,229.16,213.11Z"/><path class="cls-2" d="M273.88,247.12a8.23,8.23,0,0,1,.39-4c1.53-3.53,5.26-5.66,8-8.14,3.25-2.95,5.8-6.89,6.25-11.26.36-3.54,1.43-6.45,4.16-8.91s5.95-4.07,8.75-6.34a55.67,55.67,0,0,0,8.05-7.9c2-2.47,5.78-6.1,7.94-1.47a8.19,8.19,0,0,1,.37,5.92c-1.64,5.07-6.71,8-9.18,12.57-1.25,2.31-1.63,4.88-2.14,7.43-.46,2.28-1.15,4.82-3,6.41-1.06.93-2.36,1.57-3.33,2.59-1.36,1.41-1.9,3.33-2.5,5.15a28,28,0,0,1-2.6,5.44c-2.57,4.44-6.23,9.54-11.32,11.17a7.12,7.12,0,0,1-4.58.11C275.9,254.71,274.23,250.3,273.88,247.12Z"/><path class="cls-3" d="M280.23,249.26l1.64-2.82a.63.63,0,0,1-.09-.24L280.71,239a.66.66,0,0,1,.57-.75.64.64,0,0,1,.75.56l.87,5.87,8.66-14.87a1.08,1.08,0,0,1,0-.19l.46-12a.66.66,0,0,1,.69-.65.68.68,0,0,1,.64.7l-.37,9.72,6.48-11.13a.67.67,0,0,1,.91-.24.66.66,0,0,1,.24.91l-9.1,15.63,8.13-3.77a.67.67,0,0,1,.56,1.21l-9.6,4.45a.59.59,0,0,1-.22.05l-9,15.4a.66.66,0,0,1-.54.33.6.6,0,0,1-.37-.09A.66.66,0,0,1,280.23,249.26Z"/><path class="cls-4" d="M228.52,167.43h-101v-53a50.49,50.49,0,0,1,101,0ZM144.37,150.6h67.32V114.4a33.66,33.66,0,0,0-67.32,0Z"/><rect class="cls-4" x="156" y="165.91" width="43" height="47.67"/><path class="cls-5" d="M243.08,128.46H113a7.89,7.89,0,0,0-7.89,7.89v102a7.88,7.88,0,0,0,7.89,7.88H243.08a7.9,7.9,0,0,0,7.89-7.88v-102A7.91,7.91,0,0,0,243.08,128.46Zm-71,57.92v-8.72a6,6,0,0,1,11.9,0v8.72a12,12,0,1,1-11.9,0Z"/><path class="cls-6" d="M251,136.35v102a7.9,7.9,0,0,1-7.89,7.88H113a7.88,7.88,0,0,1-7.89-7.88v-5.08c30.93.43,77-.92,101.9-11,35.7-14.48,35.67-74.71,34.41-93.81h1.65A7.91,7.91,0,0,1,251,136.35Z"/><rect class="cls-7" y="245.95" width="313.67" height="64.45" transform="translate(313.67 556.35) rotate(180)"/><rect class="cls-8" x="64.55" y="204.45" width="3.71" height="31.3"/><rect class="cls-8" x="61.84" y="239.25" width="9.09" height="1.19" transform="translate(-174.71 301.52) rotate(-88.88)"/><circle class="cls-8" cx="66.25" cy="245.63" r="1.84"/><path class="cls-8" d="M75.57,245.63a1.84,1.84,0,1,1-1.84-1.84A1.84,1.84,0,0,1,75.57,245.63Z"/><polygon class="cls-8" points="74.4 244.59 73.21 244.59 73.21 242.07 66.61 235.47 67.45 234.63 74.4 241.58 74.4 244.59"/><path class="cls-8" d="M57.24,245.63a1.84,1.84,0,1,0,1.83-1.84A1.83,1.83,0,0,0,57.24,245.63Z"/><polygon class="cls-8" points="59.59 244.59 58.41 244.59 58.41 241.58 65.36 234.63 66.19 235.47 59.59 242.07 59.59 244.59"/><path class="cls-9" d="M82.2,158.35v46.84H48.09a7.43,7.43,0,0,1-7.43-7.42V158.35A13.24,13.24,0,0,1,53.9,145.11H69A13.25,13.25,0,0,1,82.2,158.35Z"/><path class="cls-8" d="M64.05,196.58v8.61h-16a7.43,7.43,0,0,1-7.43-7.42v-1.19Z"/><rect class="cls-9" x="53.42" y="196.58" width="39.17" height="8.6"/><path class="cls-10" d="M77.34,197.47c13,2.13,23.86,1.51,24.34-1.39s-9.65-7-22.61-9.12-23.87-1.51-24.34,1.39S64.37,195.33,77.34,197.47Z"/><path class="cls-10" d="M99.35,195.32c9.15-4.31,12.48,35.7,10.46,44.39s-7.39-6.17-10-20.28S95.75,197,99.35,195.32Z"/><path class="cls-4" d="M109.69,240.25a23.55,23.55,0,0,0,3.91,3.67c2.69,2.09,3.4,1.65,3.46,2.42s-11.24,0-11.24,0l.23-6.31A27.78,27.78,0,0,1,109.69,240.25Z"/><path class="cls-10" d="M88.87,193.16c12.7,4,23.71,5,24.6,2.2S104.79,187,92.09,183s-23.71-5-24.59-2.2S76.18,189.13,88.87,193.16Z"/><path class="cls-10" d="M110.33,193.88C121,197,93.69,230,85.71,235.71s-.58-8,7.49-21.57S106.13,192.67,110.33,193.88Z"/><path class="cls-4" d="M85.23,236.07a25.31,25.31,0,0,0,.56,5.88c.71,3.67,1.62,3.82,1.11,4.5s-9.29-8.16-9.29-8.16l4.76-5A29.37,29.37,0,0,1,85.23,236.07Z"/><path class="cls-11" d="M61.93,181.26c.78,5.56,9.53,9.73,18.17,12.67s17.27,4.64,17.56,5.22c.57,1.1-13,26.8-14.49,29.5l-.13.23,5.77,5.19s26-28.87,25.16-38.82c-.8-9.25-34.92-16.72-34.92-16.72S60.4,170.12,61.93,181.26Z"/><path class="cls-12" d="M97.66,199.15c.57,1.1-13,26.8-14.49,29.5C91.81,220,110,200.5,105.45,194.33c-5.9-8-29.23-11.27-29.23-11.27l3.88,10.87C88.79,196.89,97.37,198.57,97.66,199.15Z"/><path class="cls-11" d="M57.13,198.59c8.27,2.68,35.77,2.1,36.74,3.25s10.49,35.9,10.49,35.9h7.4c-.08,0-2.12-33.86-7.32-42.42s-35.58-14-35.58-14l-16.64-.67s-.06.25-.13.69C51.55,184.38,49.91,196.24,57.13,198.59Z"/><path class="cls-12" d="M57.13,198.59c8.27,2.68,35.77,2.1,36.74,3.25s10.49,35.9,10.49,35.9h.19c.08-9-6-35.25-9-38.65-3.42-3.75-21.6-3.32-31-3.92-8-.53-11.51-10.6-12.37-13.79C51.55,184.38,49.91,196.24,57.13,198.59Z"/><path class="cls-4" d="M74.35,148c1.64-2.51,2.91-5.44,4.35-8,1-1.71,1.94-3.56,1.75-5.51-.14-1.5-1-2.85-1.31-4.32a14.15,14.15,0,0,1-.23-3.62l.12-5c0-1,.31-2.13-.27-2.92a18.7,18.7,0,0,0-3.16-2.63l-6-5-12.68,9,1.19,22.85,9.35,4.48L71,148.85c1.15.55,1.87,1.23,2.73.05C73.92,148.59,74.14,148.28,74.35,148Z"/><path class="cls-10" d="M69.13,144c.67,2.75,1.55,6.44,2.62,10a49.19,49.19,0,0,0,3.09,8.29c1.09,2.1,2.24,3.32,3.4,3a1.83,1.83,0,0,0,1-.78,6.06,6.06,0,0,0,.59-3.42,25.17,25.17,0,0,0-.57-4.17c-.33-1.66-.79-3.44-1.32-5.23-1.42-4.9-3.27-9.9-4.17-12.65-.46-1.42-2.63-.67-4.09-.79C66.11,137.89,68,139.28,69.13,144Z"/><path class="cls-10" d="M75.19,165c.28,1,12.82,5.35,21.64,7.47,4.84,1.19,8.56,1.7,8.49.63-.14-2.54-19.07-9.68-25.49-12l-.63-.23a4.18,4.18,0,0,0-2.47-.12,3.17,3.17,0,0,0-1.18.61,2,2,0,0,0-.71,1A4.72,4.72,0,0,0,75.19,165Z"/><path class="cls-13" d="M74.84,162.31a4.72,4.72,0,0,0,.35,2.69c.28,1,12.82,5.35,21.64,7.47-5.59-2.21-13.66-5.58-17.59-8A6.65,6.65,0,0,1,77,162.67a2.86,2.86,0,0,1-.27-1.95,7.88,7.88,0,0,1,2.53-3.82c-.33-1.66-.79-3.44-1.32-5.23l-4.47-.35L71.75,154A49.19,49.19,0,0,0,74.84,162.31Z"/><path class="cls-10" d="M101.62,171.73c.7-2,4-.37,5.06.21,1.78,1,3.14,3.42,2.77,4.13s-4.29-1.7-4.51-1.61,1.58,1.46,1.16,2.09-3-.86-3.82-1.85A2.68,2.68,0,0,1,101.62,171.73Z"/><path class="cls-14" d="M70.56,155.91l1.11-.12,5.66-.59,2.23-.23s-.9-17.56-6.8-16.74C67.33,139,70.56,155.91,70.56,155.91Z"/><path class="cls-15" d="M70.54,153.77a7.24,7.24,0,0,0,1.13,2l5.66-.59a29.29,29.29,0,0,0,.68-4.49c.48-6.69-2.59-10.45-2.59-10.45S70.62,153.12,70.54,153.77Z"/><path class="cls-14" d="M52.22,180.69s18.9,2.88,26.83-2.16c0,0-.44-.94-1-2.48-.44-1.17-1-2.72-1.47-4.44a33.06,33.06,0,0,1-1.41-9.23c.15-7.37,2.31-8.52,2.52-13.29S75.55,139,73.91,137.51c-3.27-3.08-11.35-3.12-14.66-1.53-2.94,1.43-4.11,3.27-4.49,5.06a58.87,58.87,0,0,0-1,6.75c-.29,2.88-.48,6.07-.63,9.3-.17,3-.25,6.15-.33,9.06,0,1.47-.09,2.88-.13,4.22C52.56,174.84,52.45,178.57,52.22,180.69Z"/><path class="cls-15" d="M53.14,157.09c3.28.48,7.77.84,8.44-.44,1.09-2.06.17-11.71.17-11.71l-8,2.85C53.48,150.67,53.29,153.86,53.14,157.09Z"/><path class="cls-15" d="M52.68,170.37c.4,1.47.92,2.77,1.64,3.21,1.55,1,17.62,2.1,23.73,2.47-.44-1.17-1-2.72-1.47-4.44C73.24,171.38,56,170,56,170l-3.17-3.84C52.77,167.62,52.72,169,52.68,170.37Z"/><path class="cls-10" d="M78.11,124.84c-.15,5.21-1,6.57-2.69,7.87s-5.18,0-5.58-.18h0l0,0v4.24c0,.29,1.11,2.59-2,2.59s-6.17-2.44-6.17-2.44v-7.43s-5.41-6.92-3.25-12.69,13-3.17,16.36-2S78.24,119.66,78.11,124.84Z"/><polygon class="cls-10" points="69.81 132.49 65.72 131.02 69.81 134.85 69.81 132.49"/><path class="cls-10" d="M54.44,171.56a1,1,0,0,0,.57.17c.94,0,1.76-.75,2.48-2.12a21.84,21.84,0,0,0,1.23-3.52,72.47,72.47,0,0,0,1.54-9c.06-.55.12-1.11.16-1.68.57-5.31.8-10.55.88-13.2a3.75,3.75,0,0,0-2-3.58c-3.23-1.53-5,5.14-5.52,10-.17,1.54-.38,3.38-.56,5.33C52.47,161.31,52,170.31,54.44,171.56Z"/><path class="cls-10" d="M54.44,171.56a.12.12,0,0,0,.05.09c.73,1.3,24.25,3,32.52,1.8,1.91-.27,3-.69,2.81-1.32-.86-2.71-23.17-5.22-31.1-6-.37,0-.71-.09-1-.11a4.4,4.4,0,0,0-3.26.93,3.24,3.24,0,0,0-.6.63C52.68,169.09,53.75,170.39,54.44,171.56Z"/><path class="cls-13" d="M54.44,171.56a.12.12,0,0,0,.05.09c.73,1.3,24.25,3,32.52,1.8a.18.18,0,0,0,0-.27c-1.09-1.26-22.62-2.5-29.52-3.57a7.37,7.37,0,0,1-2-.46,3,3,0,0,1-1-2.24c-.41-2.92.3-7.62.49-9,.23-1.72,4.53-.95,5.31-.78l.12,0,.69-1.11-.65-.59-1.51-1.36-5.7-.11C52.47,161.31,52,170.31,54.44,171.56Z"/><path class="cls-10" d="M85.37,171.67c.23-2.36,4.26-1.52,5.62-1.18,2.22.55,4.4,2.88,4.2,3.76s-5.19-.67-5.4-.5,2.13,1.15,1.86,2-3.56-.1-4.72-1A3,3,0,0,1,85.37,171.67Z"/><path class="cls-14" d="M52.32,155.13s.39-17.23,5.87-16.83c5.93.43,2.89,17.74,2.89,17.74Z"/><path class="cls-4" d="M79,122.15c.7-4,.94-6.59-.21-9.06-2.59-5.56-16.51-9.08-21.36,1.42-.34.73-.65,1.47-1,2.22A68.67,68.67,0,0,0,52.22,134a52.81,52.81,0,0,0-.44,7.54,26.06,26.06,0,0,0,.2,2.93c.14,1,.13,2.45.74,3.22a5.21,5.21,0,0,0,1.52,1.19,3,3,0,0,0,1.47.57A3,3,0,0,0,57.2,149a15,15,0,0,0,5.08-4.74,8.82,8.82,0,0,0,1.22-6.71c-.18-.69-.46-1.35-.66-2a9.83,9.83,0,0,1,0-5.43c.25-.88.84-1.66,1-2.56a10.14,10.14,0,0,0,.17-2.4,8.22,8.22,0,0,1,0-1.21,5.2,5.2,0,0,1,.22-1c.17-.62.35-1.24.52-1.86a3.66,3.66,0,0,1,.91-1.82,4.41,4.41,0,0,1,1.2-.67,5.79,5.79,0,0,0,3.5-3.89c2.42,2.88,4.77,6.69,8.74,7.57"/><path class="cls-16" d="M133.34,153.49l-10.87,22.24s-22.58-.16-22.75,0l10.87-22.24Z"/><polygon class="cls-17" points="83.39 175.67 99.79 175.66 100.44 174.32 101.18 172.81 83.82 172.69 83.6 174.19 83.39 175.67"/><polygon class="cls-17" points="110.59 153.49 109.76 153.49 99.1 175.57 99.78 175.66 110.59 153.49"/><path class="cls-17" d="M83.39,175.67h16.4l.65-1.33s-16.87-.14-16.84-.14Z"/><path class="cls-17" d="M118.9,166.05c-.9,1.12-2.31,1.48-3.14.81s-.78-2.13.12-3.25,2.32-1.48,3.15-.81S119.81,164.93,118.9,166.05Z"/><rect class="cls-18" x="43.12" y="176.48" width="2.59" height="70.5"/><rect class="cls-18" x="132.85" y="176.48" width="2.59" height="70.5"/><rect class="cls-4" x="29.23" y="175.33" width="120.02" height="5.18" transform="translate(178.49 355.83) rotate(180)"/><path class="cls-19" d="M244.58,186.44h.14a12.87,12.87,0,0,0,3.91-1.38l0,0v2.82a4.82,4.82,0,0,1-3.83,3.43,4.87,4.87,0,0,1-3.83-3.45V185.3l0-.05A12.86,12.86,0,0,0,244.58,186.44Z"/><path class="cls-10" d="M244.72,186.44h-.14a12.86,12.86,0,0,1-3.56-1.19,6.42,6.42,0,0,1-3.85-4.67s-2-.88-2-2.52,1.78-1.21,1.78-1.21-1.45-5.18,1.28-9,6.23-2.64,6.23-2.64h.28s3.51-1.19,6.24,2.64,1.28,9,1.28,9,1.75-.43,1.79,1.21-2,2.52-2,2.52a6.29,6.29,0,0,1-3.49,4.48A12.87,12.87,0,0,1,244.72,186.44Z"/><path class="cls-7" d="M261.57,227.49l0,.11a126,126,0,0,0-16.78,8.5,126.47,126.47,0,0,0-16.76-8.5l0-.11V216h33.48v11.53Z"/><path class="cls-10" d="M228.09,220.16v7.33l0,.11c-1.47-.58-2.94-1.09-4.31-1.5-3.52-2.84-8.34-7-8.88-8.77-.44-1.4,1.46-5.5,3.85-10l0,0,6,3.36,1.9,1.08c-1.07,1.93-2,3.79-1.8,4.25.37,1.08,3.22,4.1,3.22,4.1Z"/><path class="cls-10" d="M274.79,217.33c-.53,1.76-5.34,5.91-8.86,8.76-1.37.41-2.84.91-4.34,1.51l0-.11v-7.33h.05s2.83-3,3.22-4.1c.17-.46-.73-2.32-1.8-4.25l1.89-1.07,6-3.37,0,0C273.34,211.83,275.24,215.93,274.79,217.33Z"/><path class="cls-19" d="M267.55,216.5a81,81,0,0,1-6,7.34v-3.68h.05s2.83-3,3.22-4.1c.17-.46-.73-2.32-1.8-4.25l2.35-1.32C266.48,212,268.48,214.92,267.55,216.5Z"/><path class="cls-14" d="M271,207.35h0l-5.52,3.12-.46.26h0L263,211.81c-.29-.53-.6-1.06-.9-1.58-1-1.73-2-3.25-2.15-3.53v0s-.38,6.13-.22,9V216H229.89v-.28c.19-2.89-.21-9-.21-9s0,0,0,0c-.23.34-1.76,2.79-3,5.12l-1.91-1.09-6-3.36h0c2.45-4.62,5.47-9.66,7-12.57,2.54-4.67,11.07-6.31,14.14-6.75.7-.1,1.11-.14,1.11-.14a3.85,3.85,0,0,0,7.66,0s.41,0,1.1.14c3.06.43,11.61,2,14.15,6.73,1.41,2.59,3.94,6.87,6.22,11C270.41,206.33,270.68,206.84,271,207.35Z"/><path class="cls-15" d="M265.39,210.48l-.46.26h0L263,211.81c-1.28-2.3-2.81-4.75-3.05-5.11v-4.1A65.12,65.12,0,0,1,265.39,210.48Z"/><path class="cls-15" d="M229.68,202.83v3.82s0,0,0,0c-.23.35-1.76,2.79-3,5.12l-1.9-1.08A81.24,81.24,0,0,1,229.68,202.83Z"/><path class="cls-19" d="M228.09,220.16v2.61c-2.63-2.05-5.36-4.59-5.42-6.43,0-1.3.87-3.43,2.05-5.61l1.9,1.08c-1.07,1.93-2,3.79-1.8,4.25.37,1.08,3.22,4.1,3.22,4.1Z"/><path class="cls-4" d="M235.92,174.78a2.94,2.94,0,0,1-.48-1.8,2.84,2.84,0,0,1,1-2,1.58,1.58,0,0,1-.09-1,1.2,1.2,0,0,1,.85-.88,2.87,2.87,0,0,1,.23-2.08,1.81,1.81,0,0,1,2.21-.81,2.89,2.89,0,0,1,1.39-2.42,2.12,2.12,0,0,1,2.2.21,1.17,1.17,0,0,1,.77-.72.92.92,0,0,1,.92.46.94.94,0,0,1,.93-.46,1.15,1.15,0,0,1,.76.72,2.15,2.15,0,0,1,2.21-.21,2.91,2.91,0,0,1,1.39,2.42,1.81,1.81,0,0,1,2.21.81,2.85,2.85,0,0,1,.22,2.08,1.19,1.19,0,0,1,.85.88,1.53,1.53,0,0,1-.08,1,2.84,2.84,0,0,1,1,2,3,3,0,0,1-.48,1.8,1.13,1.13,0,0,1,.34,1.19.87.87,0,0,1-.85.68,1.62,1.62,0,0,1-.38.31,1.47,1.47,0,0,1-.31.11,1.08,1.08,0,0,1-.58-.51,1.81,1.81,0,0,1-.06-1.47,3.06,3.06,0,0,1-.71-2.23,2.38,2.38,0,0,1,.2-.68,2.36,2.36,0,0,1-1.43-2.38.7.7,0,0,1-.85,0,.93.93,0,0,1-.3-.49,2.25,2.25,0,0,1-1.4.34,2.35,2.35,0,0,1-1.37-.67,1.21,1.21,0,0,1-1.28.76h0a1.21,1.21,0,0,1-1.28-.76,2.39,2.39,0,0,1-1.37.67,2.25,2.25,0,0,1-1.4-.34,1,1,0,0,1-.3.49.7.7,0,0,1-.85,0,2.7,2.7,0,0,1-.09.85,2.37,2.37,0,0,1-1.34,1.53,2.75,2.75,0,0,1,.2.68,3.1,3.1,0,0,1-.71,2.23,1.86,1.86,0,0,1-.06,1.47,1.08,1.08,0,0,1-.58.51,1.3,1.3,0,0,1-.31-.11,1.62,1.62,0,0,1-.38-.31.87.87,0,0,1-.85-.68A1.13,1.13,0,0,1,235.92,174.78Z"/><path class="cls-18" d="M259.27,241.48l0,2.47-.06,3.44s-3.38-.3-8.28-.94a175,175,0,0,1-22.43-4.22c-6.71-1.84-12.24-4.21-13.61-7.17-3-6.46,3.36-11.62,10.69-9.08,2.94,1,8.93,3.71,15.07,6.57C249.78,236.82,259.27,241.48,259.27,241.48Z"/><path class="cls-20" d="M259.27,241.48l0,2.47-8.34,2.5a175,175,0,0,1-22.43-4.22,109.68,109.68,0,0,0,12.15-9.68C249.78,236.82,259.27,241.48,259.27,241.48Z"/><path class="cls-18" d="M261.74,242.5v5.22s6.89.46,7.33-.31,1-3.56-.77-4.89S262.29,241.12,261.74,242.5Z"/><polygon class="cls-10" points="259.1 241.48 261.8 242.47 261.8 247.67 258.99 247.39 259.1 241.48"/><path class="cls-18" d="M230.49,247.39s40.25-3.57,44.33-12.33c3-6.46-3.37-11.62-10.7-9.07s-33.73,15.49-33.73,15.49Z"/><polygon class="cls-10" points="230.48 241.48 227.78 242.47 227.78 247.67 230.59 247.39 230.48 241.48"/><path class="cls-18" d="M227.83,242.5v5.22s-6.88.46-7.32-.31-1-3.56.77-4.89S227.29,241.12,227.83,242.5Z"/><rect class="cls-2" x="62.99" y="47.34" width="16.45" height="16.45" rx="3.05"/><path class="cls-3" d="M82.33,70.21H71a3.3,3.3,0,0,1-3.29-3.29V55.61A3.29,3.29,0,0,1,71,52.33h11.3a3.28,3.28,0,0,1,3.29,3.28V66.92A3.29,3.29,0,0,1,82.33,70.21ZM71,54.91a.7.7,0,0,0-.7.7V66.92a.7.7,0,0,0,.7.7h11.3a.7.7,0,0,0,.7-.7V55.61a.7.7,0,0,0-.7-.7Z"/><rect class="cls-2" x="252.02" y="79.96" width="12.49" height="12.49" rx="2.32"/><path class="cls-3" d="M258.41,97.32h-8.58a2.5,2.5,0,0,1-2.5-2.49V86.24a2.5,2.5,0,0,1,2.5-2.49h8.58a2.5,2.5,0,0,1,2.5,2.49v8.59A2.5,2.5,0,0,1,258.41,97.32Zm-8.58-11.61a.54.54,0,0,0-.54.53v8.59a.54.54,0,0,0,.54.53h8.58a.53.53,0,0,0,.53-.53V86.24a.53.53,0,0,0-.53-.53Z"/><path class="cls-3" d="M248.12,17.32a1.26,1.26,0,0,1-.89-.37l-3-3a1.25,1.25,0,0,1,0-1.77l3-3a1.26,1.26,0,0,1,1.78,0l3,3a1.25,1.25,0,0,1,.36.88A1.27,1.27,0,0,1,252,14l-3,3A1.24,1.24,0,0,1,248.12,17.32Zm0-7.47a.23.23,0,0,0-.17.07l-3,3a.22.22,0,0,0,0,.33l3,3a.21.21,0,0,0,.34,0l3-3a.24.24,0,0,0,.07-.17.23.23,0,0,0-.07-.16l-3-3A.23.23,0,0,0,248.12,9.85Z"/><path class="cls-3" d="M262.83,139.83a1.21,1.21,0,0,1-.88-.37l-3-3a1.25,1.25,0,0,1,0-1.77l3-3a1.25,1.25,0,0,1,1.77,0l3,3a1.25,1.25,0,0,1,0,1.77l-3,3A1.23,1.23,0,0,1,262.83,139.83Zm-.16-1.09a.2.2,0,0,0,.33,0l3-3a.23.23,0,0,0,.07-.16.24.24,0,0,0-.07-.17l-3-3a.2.2,0,0,0-.33,0l-3,3a.24.24,0,0,0-.07.17.23.23,0,0,0,.07.16Z"/><path class="cls-3" d="M112.68,8.48a1.28,1.28,0,0,1-.89-.36l-3-3a1.27,1.27,0,0,1-.36-.89,1.25,1.25,0,0,1,.36-.88l3-3a1.25,1.25,0,0,1,1.77,0l3,3a1.22,1.22,0,0,1,.37.88,1.24,1.24,0,0,1-.37.89l-3,3A1.24,1.24,0,0,1,112.68,8.48Zm0-7.46a.24.24,0,0,0-.17.07l-3,3a.23.23,0,0,0-.07.16.24.24,0,0,0,.07.17l3,3a.2.2,0,0,0,.33,0l3-3a.24.24,0,0,0,.07-.17.23.23,0,0,0-.07-.16l-3-3A.23.23,0,0,0,112.68,1Z"/><path class="cls-3" d="M40.77,133.65a1.22,1.22,0,0,1-.89-.37l-3-3a1.22,1.22,0,0,1-.37-.88,1.24,1.24,0,0,1,.37-.89l3-3a1.26,1.26,0,0,1,.88-.37h0a1.22,1.22,0,0,1,.88.37l3,3a1.25,1.25,0,0,1,0,1.77l-3,3A1.21,1.21,0,0,1,40.77,133.65Zm0-7.47a.24.24,0,0,0-.17.07l-3,3a.24.24,0,0,0-.07.17.23.23,0,0,0,.07.16l3,3a.24.24,0,0,0,.33,0l3-3a.23.23,0,0,0,.07-.16.24.24,0,0,0-.07-.17l-3-3A.23.23,0,0,0,40.77,126.18Z"/><path class="cls-3" d="M297.59,155.11a1.32,1.32,0,0,1-.94-.39l-3.48-3.48a1.34,1.34,0,0,1,0-1.89l2.87-2.87a1.34,1.34,0,0,1,1.89,0l3.48,3.47a1.34,1.34,0,0,1,0,1.89l-2.88,2.88A1.33,1.33,0,0,1,297.59,155.11Zm-.18-1.16a.25.25,0,0,0,.36,0l2.87-2.87a.25.25,0,0,0,0-.36l-3.47-3.48a.25.25,0,0,0-.36,0l-2.88,2.88a.25.25,0,0,0,0,.36Z"/><circle class="cls-2" cx="99.83" cy="94.58" r="2.02"/><path class="cls-2" d="M283.67,54.74a2.16,2.16,0,1,1-2.16-2.15A2.16,2.16,0,0,1,283.67,54.74Z"/><path class="cls-2" d="M176.15,9.24A2.15,2.15,0,1,1,174,7.09,2.16,2.16,0,0,1,176.15,9.24Z"/><path class="cls-2" d="M127.15,65.24a2.49,2.49,0,1,1-2.48-2.48A2.48,2.48,0,0,1,127.15,65.24Z"/><circle class="cls-2" cx="52.87" cy="90.58" r="1.8"/><path class="cls-2" d="M98.47,122.24a1.8,1.8,0,1,1-1.8-1.8A1.8,1.8,0,0,1,98.47,122.24Z"/><path class="cls-2" d="M42.13,104.78a.8.8,0,1,1-.8-.79A.8.8,0,0,1,42.13,104.78Z"/><path class="cls-14" d="M224.79,15.66a19.16,19.16,0,0,0-6.53-1.08A19.76,19.76,0,0,0,199.43,29H109a4,4,0,0,0-4,4v6.75h0v5.92a3.39,3.39,0,0,0,3.4,3.39h.6a3.4,3.4,0,0,0,3.4-3.39V39.75h4.28v5.92a3.4,3.4,0,0,0,3.4,3.39h.78a3.4,3.4,0,0,0,3.4-3.39V39.75h4.31v5.73a3.51,3.51,0,0,0,3,3.57,3.39,3.39,0,0,0,3.75-3.38V39.74h64.13a19.77,19.77,0,0,0,38.77-6.33A19.93,19.93,0,0,0,224.79,15.66Zm6.09,22.91a5.07,5.07,0,1,1-2.8-9.3,5,5,0,0,1,2.83.87h0a5.07,5.07,0,0,1,0,8.43Z"/><path class="cls-15" d="M238.2,33.41a19.77,19.77,0,0,1-35.29,13.15c6.53,3.15,14,4.57,20.93.69a13.84,13.84,0,0,0,7-8.68,5.07,5.07,0,0,0,0-8.43h0c-1.11-5.73-4.11-11.25-6.12-14.48A19.93,19.93,0,0,1,238.2,33.41Z"/><path class="cls-13" d="M69.84,132.53h0l0,0v2.27a22.18,22.18,0,0,1-3.41-3.93l3.42,1.65Z"/><path class="cls-3" d="M138.74,170.38a29.66,29.66,0,0,1-1.9-5.28c-.31-1.77-1.27-3.2-1.29-4.09s1.42-1.4,1.8-3.21,1.14-4.77,1.61-4.68.79,3.34,1.23,4.14,1.66,1.79.72,3-.43,2.53.43,3.73-1.58,2.7-1.34,4.34a13.55,13.55,0,0,1-.21,3.84Z"/><path class="cls-2" d="M139.16,166.88a.14.14,0,0,1-.14-.12,9.55,9.55,0,0,0-.71-2.57,4.55,4.55,0,0,1-.41-1.39,2.13,2.13,0,0,1,.56-1.31,2.67,2.67,0,0,0,.59-1.23,10,10,0,0,0-.8-3.33.14.14,0,0,1,.08-.18.15.15,0,0,1,.19.07,10.46,10.46,0,0,1,.82,3.48,3.08,3.08,0,0,1-.65,1.36,1.8,1.8,0,0,0-.5,1.13,4.33,4.33,0,0,0,.38,1.3,9.42,9.42,0,0,1,.73,2.63.15.15,0,0,1-.12.16Z"/><path class="cls-2" d="M136.32,169.84c-.35-.16-.46-2.07-1.1-2.36a3,3,0,0,1-1.32-2.1c-.22-.93-2.11-1.32-2.46-2.32s.71-1.71.64-2.64-.86-2.25-.29-2.86,1.57,1.5,2.11,1.93,1.57.89,1.28,1.68.11,2.07,2,2.78S140.21,171.58,136.32,169.84Z"/><path class="cls-3" d="M136.61,166.55a.14.14,0,0,1-.14-.09,3.78,3.78,0,0,0-1.6-2.07,6.6,6.6,0,0,1-1-.92c-1-1.14-.56-3.14-.53-3.23a.13.13,0,0,1,.17-.1.13.13,0,0,1,.1.17s-.47,1.94.47,3a6.57,6.57,0,0,0,1,.88,4.11,4.11,0,0,1,1.7,2.21.14.14,0,0,1-.09.18Z"/><path class="cls-2" d="M139.78,170.05c.1-.29.19-1.52.86-1.81a3.19,3.19,0,0,0,1.85-1.33c.53-.86,0-2.19.58-3.09s1.85,0,2.52-.95-.81-2.48-.29-3.14,1.24-2.47.52-2.71-2.71,1-3.23,2.19-1.57,1.8-1.81,2.71-1,1.38-1.19,2.28.1,2.28-.23,3.28A4.33,4.33,0,0,0,139.78,170.05Z"/><path class="cls-14" d="M141.49,175.19h-6a.8.8,0,0,1-.8-.77l-.25-6.37h8.08l-.25,6.37A.8.8,0,0,1,141.49,175.19Z"/><path class="cls-3" d="M141.12,166.72h0a.15.15,0,0,1-.14-.15,7.87,7.87,0,0,1,1.94-4.89,7.69,7.69,0,0,0,1.11-2.42.15.15,0,0,1,.28.08,8.26,8.26,0,0,1-1.17,2.53,7.55,7.55,0,0,0-1.87,4.72A.15.15,0,0,1,141.12,166.72Z"/><polygon class="cls-16" points="97.63 164.77 97.44 168.22 97.23 172.04 97.06 175.27 90.81 175.27 90.64 172.04 90.45 168.22 90.27 164.77 97.63 164.77"/><rect class="cls-21" x="90.73" y="163.76" width="6.44" height="1.13"/><rect class="cls-21" x="89.84" y="164.73" width="8.21" height="1.46"/><polygon class="cls-14" points="97.44 168.22 97.23 172.04 90.64 172.04 90.45 168.22 97.44 168.22"/><circle class="cls-16" cx="93.95" cy="170.14" r="1.01"/></g></g></svg>